<svg width="22" height="19" viewBox="0 0 22 19" fill="none" xmlns="http://www.w3.org/2000/svg">
<path d="M12 9.62641V3.79775C12 2.39888 13 1 15 1C17 1 18 2.39888 18 3.79775V14.9888" stroke="#545D6A" stroke-width="2"/>
<path d="M4 17.7866H11.943C11.9745 17.7866 12 17.7633 12 17.7335V9.97855C12 6.56529 9.033 3.79785 5.3725 3.79785C4.61067 3.79785 3.88003 4.08009 3.34134 4.58247C2.80264 5.08485 2.5 5.76622 2.5 6.4767V12.6574M15.375 14.9889H20.625L21 17.7866H15L15.375 14.9889Z" stroke="#545D6A" stroke-width="2" stroke-linecap="round" stroke-linejoin="round"/>
<path d="M4 17.7864C5.65685 17.7864 7 16.5338 7 14.9887C7 13.4435 5.65685 12.1909 4 12.1909C2.34315 12.1909 1 13.4435 1 14.9887C1 16.5338 2.34315 17.7864 4 17.7864Z" stroke="#545D6A" stroke-width="2"/>
<path d="M6 3.79785V12.6574" stroke="#545D6A" stroke-width="2" stroke-linecap="round" stroke-linejoin="round"/>
</svg>
